<svg width="68" height="57" viewBox="0 0 68 57" fill="none" xmlns="http://www.w3.org/2000/svg">
<path d="M57.4333 48.2111C55.1111 48 52.7888 48.8444 50.8888 50.5333C48.5666 52.8556 44.7666 52.8556 42.2333 50.5333C40.1222 49.0556 37.7999 48.2111 35.2666 48.2111C32.7333 48 30.1999 48.8444 28.2999 50.5333C27.0333 51.5889 25.5555 52.2222 23.8666 52.2222C22.1777 52.2222 20.6999 51.5889 19.4333 50.5333C17.3222 48.8444 14.7888 48 12.2555 48C9.72217 48 7.18884 48.8444 5.07772 50.5333C3.81106 51.5889 1.91106 52.2222 0.222168 52.2222V56.4444C2.96661 56.6556 5.71106 55.8111 7.82217 53.9111C9.08883 52.8556 10.9888 52.2222 12.6777 52.2222C14.1555 52.2222 15.8444 52.8556 17.1111 53.9111C20.9111 57.2889 26.8222 57.2889 30.8333 53.9111C32.0999 52.8556 33.5777 52.2222 35.2666 52.2222C36.7444 52.2222 38.2222 52.8556 39.4888 53.9111C43.4999 57.2889 49.1999 57.2889 53.2111 53.9111C54.2666 52.8556 55.9555 52.2222 57.4333 52.2222C58.9111 52.2222 60.3888 52.8556 61.4444 53.9111C63.3444 55.3889 65.4555 56.2333 67.7777 56.4444V52.2222C65.6666 52.2222 65.2444 51.3778 64.1888 50.5333C62.2888 49.0556 59.9666 48.2111 57.4333 48.2111Z" fill="#DC9401"/>
<path d="M8.66657 39.5556C8.66657 38.2889 9.72212 37.4445 10.9888 37.4445H63.5555L56.1666 43.9889H56.5888C58.2777 43.9889 59.9666 44.4111 61.2332 45.0445L66.511 40.4L66.9332 39.9778C68.411 38.2889 68.1999 35.5445 66.511 34.0667C65.6666 33.6445 64.8221 33.2222 63.7666 33.2222H10.9888C7.3999 33.2222 4.65546 35.9667 4.65546 39.5556V46.3111C5.71101 45.2556 7.18879 44.6222 8.66657 43.9889V39.5556Z" fill="#DC9401"/>
<path d="M14.7889 31.1111H27.6667V14.6445C27.6667 13.3778 27.0334 12.1111 25.9778 11.2667C24.0778 9.78891 21.3334 10.2111 20.0667 12.1111L11.4112 24.5667C10.5667 25.8334 10.5667 27.5222 11.2 29C11.8334 30.2667 13.3112 31.1111 14.7889 31.1111ZM23.6556 14.6445L23.4445 26.8889H14.7889L23.6556 14.6445Z" fill="#DC9401"/>
<path d="M50.8888 28.9999C51.7333 27.7333 51.7333 26.0444 50.8888 24.7777L37.5888 2.82217C36.7444 1.5555 35.4777 0.71106 33.9999 0.71106C31.6777 0.71106 29.7777 2.61106 29.7777 4.93328V31.1111H47.2999C48.7777 31.1111 50.2555 30.2666 50.8888 28.9999ZM33.7888 4.93328L47.2999 27.0999H33.7888V4.93328Z" fill="#DC9401"/>
</svg>
