<svg width="648" height="885" viewBox="0 0 648 885" fill="none" xmlns="http://www.w3.org/2000/svg">
<path opacity="0.2" d="M350.781 384.496L467.743 296.059V183.103L191.616 384.093L657.254 756.128C593.885 775.033 526.978 778.875 461.862 767.348C396.746 755.821 335.221 729.245 282.19 689.735C229.159 650.225 186.087 598.875 156.406 539.775C126.725 480.675 111.256 415.458 111.23 349.322C111.23 248.827 160.064 142.904 219.55 70.1456L130.12 0L122.484 8.44158C39.2675 109.3 -4.18472 237.119 0.31793 367.804C4.82058 498.49 56.9668 623.015 146.927 717.905C236.888 812.795 358.448 871.496 488.693 882.943C618.938 894.389 748.871 857.791 854 780.045L762.36 708.292L350.781 384.496Z" fill="#DC9401"/>
</svg>
