<svg width="61" height="61" viewBox="0 0 61 61" fill="none" xmlns="http://www.w3.org/2000/svg">
<path d="M26.1875 43.321C24.6925 43.1552 23.222 42.8151 21.806 42.3076C21.8491 41.2899 21.875 40.229 21.875 39.125V37.6717C23.2119 38.3099 24.6652 38.7541 26.1875 38.9741V28.3437C26.1875 26.6281 26.869 24.9828 28.0822 23.7696C29.2953 22.5565 30.9406 21.875 32.6562 21.875H43.2866C42.9426 19.4854 42.0305 17.2131 40.6268 15.2489C39.223 13.2847 37.3686 11.6859 35.2192 10.5867C33.0697 9.48746 30.6879 8.91987 28.2737 8.93156C25.8595 8.94324 23.4833 9.53387 21.3446 10.6539C21.0034 9.24339 20.4416 7.89565 19.6799 6.66049C22.4756 5.26507 25.5669 4.56534 28.6909 4.62077C31.815 4.6762 34.8795 5.48516 37.6239 6.97887C40.3683 8.47258 42.7115 10.6069 44.4542 13.2003C46.1968 15.7938 47.2876 18.7696 47.6336 21.875H54.2188C55.9344 21.875 57.5797 22.5565 58.7928 23.7696C60.006 24.9828 60.6875 26.6281 60.6875 28.3437V49.9062C60.6875 51.6219 60.006 53.2672 58.7928 54.4803C57.5797 55.6935 55.9344 56.375 54.2188 56.375H32.6562C30.9406 56.375 29.2953 55.6935 28.0822 54.4803C26.869 53.2672 26.1875 51.6219 26.1875 49.9062V43.321ZM47.6336 26.1875C47.1436 30.5629 45.1809 34.6419 42.0677 37.7552C38.9544 40.8684 34.8755 42.8311 30.5 43.321V49.9062C30.5 50.4781 30.7272 51.0266 31.1315 51.4309C31.5359 51.8353 32.0844 52.0625 32.6562 52.0625H54.2188C54.7906 52.0625 55.3391 51.8353 55.7435 51.4309C56.1478 51.0266 56.375 50.4781 56.375 49.9062V28.3437C56.375 27.7719 56.1478 27.2234 55.7435 26.819C55.3391 26.4147 54.7906 26.1875 54.2188 26.1875H47.6336ZM43.2866 26.1875H32.6562C32.0844 26.1875 31.5359 26.4147 31.1315 26.819C30.7272 27.2234 30.5 27.7719 30.5 28.3437V38.9741C33.7257 38.5078 36.7139 37.0106 39.0185 34.706C41.3231 32.4014 42.8203 29.4131 43.2866 26.1875ZM16.6784 28.6068C16.2256 26.9422 15.4925 25.2732 14.2333 23.9924C16.2688 22.0647 17.5625 18.9942 17.5625 15.4062C17.5625 12.4004 16.9544 10.3347 15.8548 8.68305C15.3668 7.97267 14.8028 7.31761 14.1729 6.72949C13.9314 6.49639 13.687 6.26637 13.4398 6.03949C13.1767 5.79368 12.9352 5.56943 12.6204 5.25461C11.9735 4.60774 11.9002 4.09024 11.9002 3.81855C11.9009 3.66754 11.9256 3.5176 11.9735 3.37436C12.1707 2.94797 12.2232 2.46885 12.1231 2.00986C12.023 1.55088 11.7757 1.13715 11.4189 0.831582C11.0621 0.526018 10.6152 0.345342 10.1463 0.317031C9.67739 0.28872 9.21205 0.414323 8.82106 0.674739L8.81244 0.679052L8.7995 0.687677L8.76069 0.713552L8.63131 0.799802C7.98443 1.2612 7.36121 1.75489 6.764 2.27899C5.68588 3.23205 4.28 4.64224 3.28381 6.32411C2.4142 7.71847 1.71626 9.2128 1.20519 10.7746C0.687688 12.3228 0.3125 14.0004 0.3125 15.4062C0.3125 18.9942 1.60625 22.0604 3.64175 23.9967C2.3825 25.2732 1.64938 26.9422 1.19656 28.6111C0.3125 31.8541 0.3125 35.8647 0.3125 38.9654V39.125C0.3125 48.0001 1.97281 53.27 3.85306 56.4052C4.7975 57.9749 5.78075 58.9884 6.60444 59.6266C7.04333 59.9689 7.52099 60.2584 8.02756 60.4891C8.32051 60.5961 8.62662 60.6628 8.9375 60.6875C9.29975 60.6875 9.84744 60.4891 9.84744 60.4891C10.354 60.2584 10.8317 59.9689 11.2706 59.6266C12.0899 58.9884 13.0818 57.9749 14.0219 56.4052C15.9022 53.2743 17.5625 48.0001 17.5625 39.125V38.9697C17.5625 35.8647 17.5625 31.8584 16.6784 28.6068ZM6.72519 27.0112C7.2125 26.5196 7.86369 26.1875 8.9375 26.1875C10.0156 26.1875 10.6625 26.5239 11.1498 27.0069C11.6932 27.5546 12.1632 28.4429 12.5169 29.741C13.2327 32.3759 13.25 35.8346 13.25 39.125C13.25 47.4999 11.6759 51.9331 10.3218 54.1886C9.80431 55.0511 9.317 55.6074 8.9375 55.9567C8.39527 55.4353 7.92924 54.84 7.55319 54.1886C6.19906 51.9288 4.625 47.4999 4.625 39.125C4.625 35.8346 4.64225 32.3759 5.35813 29.741C5.71175 28.4472 6.18181 27.5589 6.72519 27.0112ZM8.9375 21.875C7.27719 21.875 4.625 20.0292 4.625 15.4062C4.625 14.6602 4.84925 13.4786 5.29775 12.1417C5.70646 10.8796 6.26994 9.67294 6.97531 8.54936C7.3505 7.91543 7.83781 7.29874 8.36394 6.7338C8.6615 7.25993 9.05394 7.79036 9.57144 8.30786C9.88625 8.62268 10.2959 9.00218 10.6452 9.32993L11.18 9.83018C11.6328 10.2701 11.9821 10.6539 12.2624 11.0808C12.7799 11.8527 13.25 13.0214 13.25 15.4062C13.25 20.0292 10.5978 21.875 8.9375 21.875Z" fill="#DC9401"/>
</svg>
