<svg width="40" height="68" viewBox="0 0 40 68" fill="none" xmlns="http://www.w3.org/2000/svg">
<g clip-path="url(#clip0_23_73)">
<path d="M40 62.6875V5.3125C40 3.90354 39.4455 2.55228 38.4585 1.556C37.4714 0.559708 36.1327 0 34.7368 0H5.26316C3.86728 0 2.52857 0.559708 1.54154 1.556C0.554506 2.55228 0 3.90354 0 5.3125V62.6875C0 64.0965 0.554506 65.4477 1.54154 66.444C2.52857 67.4403 3.86728 68 5.26316 68H34.7368C36.1327 68 37.4714 67.4403 38.4585 66.444C39.4455 65.4477 40 64.0965 40 62.6875ZM2.10526 5.3125C2.10526 4.46712 2.43797 3.65637 3.03019 3.0586C3.62241 2.46082 4.42563 2.125 5.26316 2.125H34.7368C35.5744 2.125 36.3776 2.46082 36.9698 3.0586C37.562 3.65637 37.8947 4.46712 37.8947 5.3125V7.96875H2.10526V5.3125ZM2.10526 10.0938H37.8947V53.125H35.7895V26.0312C35.7895 25.4677 35.5677 24.9272 35.1729 24.5286C34.778 24.1301 34.2426 23.9062 33.6842 23.9062H29.2842L23.7421 19.9219C24.0434 19.5459 24.2087 19.0774 24.2105 18.5938V14.3438C24.2105 13.7802 23.9887 13.2397 23.5939 12.8411C23.1991 12.4426 22.6636 12.2188 22.1053 12.2188H17.8947C17.3364 12.2188 16.8009 12.4426 16.4061 12.8411C16.0113 13.2397 15.7895 13.7802 15.7895 14.3438V18.5938C15.7937 19.0737 15.9588 19.5381 16.2579 19.9112L10.7158 23.9062H6.31579C5.75744 23.9062 5.22196 24.1301 4.82714 24.5286C4.43233 24.9272 4.21053 25.4677 4.21053 26.0312V53.125H2.10526V10.0938ZM29.4737 37.1875H10.5263C9.96797 37.1875 9.43248 37.4114 9.03767 37.8099C8.64286 38.2084 8.42105 38.7489 8.42105 39.3125V53.125H6.31579V31.3438H33.6842V53.125H31.5789V39.3125C31.5789 38.7489 31.3571 38.2084 30.9623 37.8099C30.5675 37.4114 30.032 37.1875 29.4737 37.1875ZM29.4737 39.3125V53.125H10.5263V39.3125H29.4737ZM6.31579 29.2188V26.0312H33.6842V29.2188H6.31579ZM18.7579 20.7188H21.2421L25.6632 23.9062H14.3368L18.7579 20.7188ZM17.8947 18.5938V14.3438H22.1053V18.5938H17.8947ZM2.10526 62.6875V55.25H37.8947V62.6875C37.8947 63.5329 37.562 64.3436 36.9698 64.9414C36.3776 65.5392 35.5744 65.875 34.7368 65.875H5.26316C4.42563 65.875 3.62241 65.5392 3.03019 64.9414C2.43797 64.3436 2.10526 63.5329 2.10526 62.6875Z" fill="#2F2202"/>
<path d="M25.7895 4.25H14.2105C13.9314 4.25 13.6636 4.36194 13.4662 4.5612C13.2688 4.76046 13.1579 5.03071 13.1579 5.3125C13.1579 5.59429 13.2688 5.86454 13.4662 6.0638C13.6636 6.26306 13.9314 6.375 14.2105 6.375H25.7895C26.0687 6.375 26.3364 6.26306 26.5338 6.0638C26.7312 5.86454 26.8421 5.59429 26.8421 5.3125C26.8421 5.03071 26.7312 4.76046 26.5338 4.5612C26.3364 4.36194 26.0687 4.25 25.7895 4.25Z" fill="#2F2202"/>
<path d="M23.6842 57.375H16.3158C15.4783 57.375 14.675 57.7108 14.0828 58.3086C13.4906 58.9064 13.1579 59.7171 13.1579 60.5625C13.1579 61.4079 13.4906 62.2186 14.0828 62.8164C14.675 63.4142 15.4783 63.75 16.3158 63.75H23.6842C24.5217 63.75 25.325 63.4142 25.9172 62.8164C26.5094 62.2186 26.8421 61.4079 26.8421 60.5625C26.8421 59.7171 26.5094 58.9064 25.9172 58.3086C25.325 57.7108 24.5217 57.375 23.6842 57.375ZM23.6842 61.625H16.3158C16.0366 61.625 15.7689 61.5131 15.5715 61.3138C15.3741 61.1145 15.2632 60.8443 15.2632 60.5625C15.2632 60.2807 15.3741 60.0105 15.5715 59.8112C15.7689 59.6119 16.0366 59.5 16.3158 59.5H23.6842C23.9634 59.5 24.2311 59.6119 24.4285 59.8112C24.6259 60.0105 24.7368 60.2807 24.7368 60.5625C24.7368 60.8443 24.6259 61.1145 24.4285 61.3138C24.2311 61.5131 23.9634 61.625 23.6842 61.625Z" fill="#2F2202"/>
<path d="M30 6.375C30.5814 6.375 31.0527 5.8993 31.0527 5.3125C31.0527 4.7257 30.5814 4.25 30 4.25C29.4187 4.25 28.9474 4.7257 28.9474 5.3125C28.9474 5.8993 29.4187 6.375 30 6.375Z" fill="#2F2202"/>
<path d="M10 6.375C10.5814 6.375 11.0527 5.8993 11.0527 5.3125C11.0527 4.7257 10.5814 4.25 10 4.25C9.41867 4.25 8.94739 4.7257 8.94739 5.3125C8.94739 5.8993 9.41867 6.375 10 6.375Z" fill="#2F2202"/>
<path d="M17.6316 33.4688H9.73684C9.45766 33.4688 9.18992 33.5807 8.99251 33.7799C8.79511 33.9792 8.6842 34.2495 8.6842 34.5312C8.6842 34.813 8.79511 35.0833 8.99251 35.2826C9.18992 35.4818 9.45766 35.5938 9.73684 35.5938H17.6316C17.9107 35.5938 18.1785 35.4818 18.3759 35.2826C18.5733 35.0833 18.6842 34.813 18.6842 34.5312C18.6842 34.2495 18.5733 33.9792 18.3759 33.7799C18.1785 33.5807 17.9107 33.4688 17.6316 33.4688Z" fill="#2F2202"/>
<path d="M7.36845 20.7188H11.579C12.1373 20.7188 12.6728 20.4949 13.0676 20.0964C13.4624 19.6978 13.6842 19.1573 13.6842 18.5938V14.3438C13.6842 13.7802 13.4624 13.2397 13.0676 12.8411C12.6728 12.4426 12.1373 12.2188 11.579 12.2188H7.36845C6.8101 12.2188 6.27461 12.4426 5.8798 12.8411C5.48499 13.2397 5.26318 13.7802 5.26318 14.3438V18.5938C5.26318 19.1573 5.48499 19.6978 5.8798 20.0964C6.27461 20.4949 6.8101 20.7188 7.36845 20.7188ZM7.36845 14.3438H11.579V18.5938H7.36845V14.3438Z" fill="#2F2202"/>
<path d="M28.4211 20.7188H32.6316C33.1899 20.7188 33.7254 20.4949 34.1202 20.0964C34.515 19.6978 34.7368 19.1573 34.7368 18.5938V14.3438C34.7368 13.7802 34.515 13.2397 34.1202 12.8411C33.7254 12.4426 33.1899 12.2188 32.6316 12.2188H28.4211C27.8627 12.2188 27.3272 12.4426 26.9324 12.8411C26.5376 13.2397 26.3158 13.7802 26.3158 14.3438V18.5938C26.3158 19.1573 26.5376 19.6978 26.9324 20.0964C27.3272 20.4949 27.8627 20.7188 28.4211 20.7188ZM28.4211 14.3438H32.6316V18.5938H28.4211V14.3438Z" fill="#2F2202"/>
</g>
<defs>
<clipPath id="clip0_23_73">
<rect width="40" height="68" fill="white"/>
</clipPath>
</defs>
</svg>
