<svg width="74" height="68" viewBox="0 0 74 68" fill="none" xmlns="http://www.w3.org/2000/svg">
<g clip-path="url(#clip0_23_12)">
<path d="M44.0636 41.1505H64.5566C64.8911 41.1505 65.2119 41.016 65.4485 40.7765C65.685 40.537 65.8179 40.2123 65.8179 39.8736C65.8157 39.5356 65.6821 39.2121 65.4461 38.9731C65.21 38.7342 64.8904 38.5989 64.5566 38.5967H44.0636C43.7298 38.5989 43.4102 38.7342 43.1741 38.9731C42.9381 39.2121 42.8044 39.5356 42.8022 39.8736C42.8022 40.2123 42.9351 40.537 43.1717 40.7765C43.4082 41.016 43.7291 41.1505 44.0636 41.1505Z" fill="#2F2202"/>
<path d="M44.0636 50.3107H58.2329C58.5675 50.3107 58.8883 50.1761 59.1248 49.9367C59.3614 49.6972 59.4943 49.3724 59.4943 49.0338C59.4943 48.6951 59.3614 48.3703 59.1248 48.1308C58.8883 47.8914 58.5675 47.7568 58.2329 47.7568H44.0636C43.7291 47.7568 43.4082 47.8914 43.1717 48.1308C42.9351 48.3703 42.8022 48.6951 42.8022 49.0338C42.8044 49.3717 42.9381 49.6952 43.1741 49.9342C43.4102 50.1732 43.7298 50.3084 44.0636 50.3107Z" fill="#2F2202"/>
<path d="M72.7387 28.3306H35.89C35.5555 28.3306 35.2347 28.4651 34.9981 28.7046C34.7616 28.944 34.6287 29.2688 34.6287 29.6075V58.6871C34.6287 59.0258 34.7616 59.3505 34.9981 59.59C35.2347 59.8295 35.5555 59.964 35.89 59.964H44.5682L38.9762 65.8378C38.742 66.0783 38.6107 66.4025 38.6107 66.7402C38.6107 67.0779 38.742 67.402 38.9762 67.6425C39.2127 67.8817 39.5333 68.016 39.8675 68.016C40.2018 68.016 40.5224 67.8817 40.7589 67.6425L48.4112 59.615C48.6479 59.3741 48.7808 59.0482 48.7808 58.7084C48.7808 58.3686 48.6479 58.0426 48.4112 57.8018C48.183 57.5833 47.8841 57.4562 47.5703 57.4442H37.2187V30.8844H71.4773V57.4102H54.6591C54.3246 57.4102 54.0038 57.5447 53.7672 57.7842C53.5307 58.0237 53.3978 58.3484 53.3978 58.6871C53.3978 59.0258 53.5307 59.3505 53.7672 59.59C54.0038 59.8295 54.3246 59.964 54.6591 59.964H72.705C73.0396 59.964 73.3604 59.8295 73.597 59.59C73.8335 59.3505 73.9664 59.0258 73.9664 58.6871V29.6075C73.9665 29.2746 73.8382 28.9549 73.6089 28.7164C73.3796 28.4779 73.0673 28.3394 72.7387 28.3306Z" fill="#2F2202"/>
<path d="M5.28931 54.1668H29.4318C29.7664 54.1668 30.0872 54.0322 30.3237 53.7928C30.5603 53.5533 30.6932 53.2285 30.6932 52.8898C30.6932 52.5512 30.5603 52.2264 30.3237 51.9869C30.0872 51.7475 29.7664 51.6129 29.4318 51.6129H5.31455C4.94912 51.6163 4.58664 51.5463 4.24807 51.4071C3.90949 51.2679 3.60152 51.0621 3.34194 50.8017C3.08236 50.5413 2.87632 50.2314 2.73571 49.8899C2.5951 49.5485 2.52271 49.1822 2.52273 48.8122V5.35453C2.52273 4.61174 2.81421 3.89937 3.33305 3.37414C3.85188 2.8489 4.55557 2.55383 5.28931 2.55383H65.7507C66.4844 2.55383 67.1881 2.8489 67.707 3.37414C68.2258 3.89937 68.5173 4.61174 68.5173 5.35453V23.7762C68.5161 23.946 68.5485 24.1144 68.6124 24.2714C68.6764 24.4284 68.7706 24.571 68.8896 24.6907C69.0087 24.8104 69.1501 24.9048 69.3056 24.9685C69.4612 25.0322 69.6277 25.0639 69.7955 25.0616C70.13 25.0616 70.4508 24.9271 70.6874 24.6876C70.9239 24.4481 71.0568 24.1233 71.0568 23.7847V5.35453C71.0524 3.9358 70.4937 2.57646 69.5027 1.57327C68.5117 0.570069 67.1689 0.00448968 65.7675 0H5.30613C3.90177 -7.14119e-06 2.55467 0.563586 1.56006 1.56727C0.565451 2.57095 0.00445124 3.93286 0 5.35453V48.8122C0.004435 50.231 0.563129 51.5903 1.55411 52.5935C2.54509 53.5967 3.88786 54.1623 5.28931 54.1668Z" fill="#2F2202"/>
<path d="M12.8238 8.16385C12.8216 7.53238 12.5728 6.92741 12.1318 6.48088C11.6907 6.03436 11.0931 5.78252 10.4693 5.78027C9.84483 5.78027 9.24595 6.0314 8.80439 6.47841C8.36282 6.92541 8.11475 7.53169 8.11475 8.16385C8.11475 8.79601 8.36282 9.40228 8.80439 9.84929C9.24595 10.2963 9.84483 10.5474 10.4693 10.5474C11.0931 10.5452 11.6907 10.2933 12.1318 9.84681C12.5728 9.40029 12.8216 8.79532 12.8238 8.16385ZM10.3011 8.16385C10.2937 8.11988 10.3037 8.07473 10.3289 8.03812C10.354 8.0015 10.3924 7.97635 10.4357 7.96806C10.4791 7.96059 10.5237 7.97067 10.5599 7.99614C10.596 8.02161 10.6209 8.06044 10.6291 8.10426V8.16385C10.6291 8.35113 10.3011 8.35113 10.3011 8.16385Z" fill="#2F2202"/>
<path d="M21.0227 8.16385C21.0227 7.53169 20.7746 6.92541 20.3331 6.47841C19.8915 6.0314 19.2926 5.78027 18.6681 5.78027C18.0444 5.78252 17.4468 6.03436 17.0057 6.48088C16.5646 6.92741 16.3158 7.53238 16.3136 8.16385C16.3136 8.79601 16.5617 9.40228 17.0032 9.84929C17.4448 10.2963 18.0437 10.5474 18.6681 10.5474C19.2926 10.5474 19.8915 10.2963 20.3331 9.84929C20.7746 9.40228 21.0227 8.79601 21.0227 8.16385ZM18.5 8.16385C18.4926 8.11988 18.5025 8.07473 18.5277 8.03812C18.5529 8.0015 18.5912 7.97635 18.6345 7.96806C18.679 7.96037 18.7246 7.9702 18.7622 7.99553C18.7997 8.02086 18.8262 8.05976 18.8363 8.10426V8.16385C18.8447 8.35113 18.5 8.35113 18.5 8.16385Z" fill="#2F2202"/>
<path d="M29.2468 8.16385C29.2446 7.53238 28.9958 6.92741 28.5547 6.48088C28.1137 6.03436 27.5161 5.78252 26.8923 5.78027C26.2678 5.78027 25.6689 6.0314 25.2274 6.47841C24.7858 6.92541 24.5377 7.53169 24.5377 8.16385C24.5321 8.48187 24.5894 8.7978 24.7063 9.09305C24.8232 9.3883 24.9972 9.65688 25.2182 9.88298C25.4392 10.1091 25.7027 10.2881 25.9931 10.4095C26.2834 10.531 26.5949 10.5923 26.9091 10.59C27.2201 10.5867 27.5275 10.5212 27.8134 10.3974C28.0994 10.2735 28.3584 10.0937 28.5756 9.86834C28.7928 9.64293 28.9639 9.37633 29.0791 9.08383C29.1943 8.79134 29.2513 8.4787 29.2468 8.16385ZM26.7241 8.16385C26.7167 8.11988 26.7267 8.07473 26.7518 8.03812C26.777 8.0015 26.8154 7.97635 26.8586 7.96806C26.9021 7.96059 26.9467 7.97067 26.9828 7.99614C27.019 8.02161 27.0439 8.06044 27.0521 8.10426C27.056 8.11369 27.058 8.12382 27.058 8.13406C27.058 8.14429 27.056 8.15442 27.0521 8.16385C27.0521 8.35113 26.7241 8.35113 26.7241 8.16385Z" fill="#2F2202"/>
<path d="M6.17224 14.6929C6.17224 15.0316 6.30514 15.3564 6.54169 15.5958C6.77824 15.8353 7.09907 15.9698 7.4336 15.9698H63.6147C63.9493 15.9698 64.2701 15.8353 64.5067 15.5958C64.7432 15.3564 64.8761 15.0316 64.8761 14.6929C64.8761 14.3543 64.7432 14.0295 64.5067 13.79C64.2701 13.5505 63.9493 13.416 63.6147 13.416H7.4336C7.09907 13.416 6.77824 13.5505 6.54169 13.79C6.30514 14.0295 6.17224 14.3543 6.17224 14.6929Z" fill="#2F2202"/>
</g>
<defs>
<clipPath id="clip0_23_12">
<rect width="74" height="68" fill="white"/>
</clipPath>
</defs>
</svg>
