<svg width="72" height="68" viewBox="0 0 72 68" fill="none" xmlns="http://www.w3.org/2000/svg">
<g clip-path="url(#clip0_23_56)">
<path d="M71.7167 58.9298C71.6597 58.7279 71.538 58.5502 71.3702 58.4237C71.2024 58.2973 70.9976 58.229 70.7872 58.2295H68.6562V17.4859C68.6562 16.3146 68.1893 15.1912 67.3581 14.3629C66.5269 13.5347 65.3996 13.0693 64.2242 13.0693C63.9687 13.0693 63.7236 13.1705 63.5429 13.3506C63.3622 13.5306 63.2607 13.7748 63.2607 14.0295C63.2607 14.2841 63.3622 14.5283 63.5429 14.7084C63.7236 14.8884 63.9687 14.9896 64.2242 14.9896C64.8886 14.9896 65.5257 15.2526 65.9955 15.7208C66.4653 16.1889 66.7292 16.8239 66.7292 17.4859V58.2295H5.28215V17.4859C5.28215 16.8239 5.54607 16.1889 6.01585 15.7208C6.48564 15.2526 7.12282 14.9896 7.78719 14.9896C8.04272 14.9896 8.28777 14.8884 8.46846 14.7084C8.64915 14.5283 8.75066 14.2841 8.75066 14.0295C8.75066 13.7748 8.64915 13.5306 8.46846 13.3506C8.28777 13.1705 8.04272 13.0693 7.78719 13.0693C6.61176 13.0693 5.48445 13.5347 4.65329 14.3629C3.82213 15.1912 3.3552 16.3146 3.3552 17.4859V58.2295H1.22421C1.0138 58.229 0.80904 58.2973 0.641202 58.4237C0.473364 58.5502 0.351684 58.7279 0.294749 58.9298C-0.0180441 59.9907 -0.0784585 61.1096 0.118296 62.1978C0.315051 63.286 0.763561 64.3135 1.42825 65.1989C2.08682 66.0755 2.94278 66.7857 3.92719 67.2722C4.9116 67.7588 5.99694 68.0082 7.09576 68.0002H64.9723C66.0711 68.0082 67.1565 67.7588 68.1409 67.2722C69.1253 66.7857 69.9813 66.0755 70.6398 65.1989C71.2949 64.3088 71.7333 63.279 71.9202 62.1909C72.1071 61.1029 72.0374 59.9864 71.7167 58.9298ZM69.0416 64.0354C68.5648 64.6712 67.9454 65.1872 67.233 65.5421C66.5206 65.8971 65.7348 66.0813 64.9383 66.08H7.06175C6.27484 66.0725 5.50027 65.8842 4.79838 65.5296C4.09649 65.1749 3.48623 64.6636 3.01514 64.0354C2.60164 63.4848 2.30246 62.8576 2.13508 62.1904C1.9677 61.5232 1.93549 60.8295 2.04033 60.1497H70.0504C70.1571 60.8317 70.1226 61.5283 69.9491 62.1965C69.7756 62.8648 69.4668 63.4906 69.0416 64.0354Z" fill="#2F2202"/>
<path d="M42.2342 62.1826H29.7657C29.5102 62.1826 29.2651 62.2838 29.0844 62.4638C28.9038 62.6439 28.8022 62.8881 28.8022 63.1427C28.8022 63.3974 28.9038 63.6416 29.0844 63.8217C29.2651 64.0017 29.5102 64.1029 29.7657 64.1029H42.2342C42.4898 64.1029 42.7348 64.0017 42.9155 63.8217C43.0962 63.6416 43.1977 63.3974 43.1977 63.1427C43.1977 62.8881 43.0962 62.6439 42.9155 62.4638C42.7348 62.2838 42.4898 62.1826 42.2342 62.1826Z" fill="#2F2202"/>
<path d="M16.3225 53.2593H55.6776C57.0665 53.2593 58.3985 52.7095 59.3806 51.7308C60.3627 50.7521 60.9144 49.4248 60.9144 48.0407V5.21877C60.8995 3.84452 60.3412 2.53161 59.3607 1.56511C58.3802 0.598616 57.0568 0.0565601 55.6776 0.0566406H16.3225C14.9336 0.0566406 13.6016 0.606456 12.6195 1.58513C11.6374 2.56381 11.0857 3.89119 11.0857 5.27525V48.0407C11.0857 49.4248 11.6374 50.7521 12.6195 51.7308C13.6016 52.7095 14.9336 53.2593 16.3225 53.2593ZM55.6776 51.339H16.3225C15.4447 51.339 14.6028 50.9915 13.9821 50.373C13.3614 49.7544 13.0127 48.9155 13.0127 48.0407V10.3809H58.9875V48.0407C58.9875 48.9155 58.6387 49.7544 58.018 50.373C57.3973 50.9915 56.5555 51.339 55.6776 51.339ZM16.3225 1.92043H55.6776C56.5555 1.92043 57.3973 2.26793 58.018 2.88649C58.6387 3.50505 58.9875 4.34399 58.9875 5.21877V8.46063H13.0127V5.21877C13.0127 4.34399 13.3614 3.50505 13.9821 2.88649C14.6028 2.26793 15.4447 1.92043 16.3225 1.92043Z" fill="#2F2202"/>
<path d="M16.9005 6.1561H33.5176C33.6442 6.1561 33.7694 6.13127 33.8863 6.08302C34.0032 6.03477 34.1094 5.96405 34.1989 5.87489C34.2884 5.78573 34.3593 5.67989 34.4078 5.5634C34.4562 5.44691 34.4811 5.32206 34.4811 5.19597C34.4811 4.94133 34.3796 4.69712 34.1989 4.51706C34.0182 4.337 33.7732 4.23584 33.5176 4.23584H16.9005C16.645 4.23584 16.3999 4.337 16.2192 4.51706C16.0385 4.69712 15.937 4.94133 15.937 5.19597C15.937 5.32206 15.9619 5.44691 16.0104 5.5634C16.0588 5.67989 16.1297 5.78573 16.2192 5.87489C16.3087 5.96405 16.4149 6.03477 16.5318 6.08302C16.6487 6.13127 16.774 6.1561 16.9005 6.1561Z" fill="#2F2202"/>
<path d="M54.8388 36.4287H48.5932C48.3377 36.4287 48.0926 36.5299 47.912 36.7099C47.7313 36.89 47.6298 37.1342 47.6298 37.3888C47.6298 37.6435 47.7313 37.8877 47.912 38.0678C48.0926 38.2478 48.3377 38.349 48.5932 38.349H54.8388C55.0944 38.349 55.3394 38.2478 55.5201 38.0678C55.7008 37.8877 55.8023 37.6435 55.8023 37.3888C55.8023 37.1342 55.7008 36.89 55.5201 36.7099C55.3394 36.5299 55.0944 36.4287 54.8388 36.4287Z" fill="#2F2202"/>
<path d="M44.0705 37.3888C44.0705 37.2628 44.0456 37.1379 43.9972 37.0214C43.9487 36.9049 43.8778 36.7991 43.7883 36.7099C43.6988 36.6208 43.5926 36.55 43.4757 36.5018C43.3588 36.4535 43.2336 36.4287 43.107 36.4287H29.7657C29.6392 36.4287 29.5139 36.4535 29.397 36.5018C29.2801 36.55 29.1739 36.6208 29.0844 36.7099C28.995 36.7991 28.924 36.9049 28.8756 37.0214C28.8272 37.1379 28.8022 37.2628 28.8022 37.3888C28.8022 37.6435 28.9038 37.8877 29.0844 38.0678C29.2651 38.2478 29.5102 38.349 29.7657 38.349H43.107C43.3626 38.349 43.6076 38.2478 43.7883 38.0678C43.969 37.8877 44.0705 37.6435 44.0705 37.3888Z" fill="#2F2202"/>
<path d="M17.1725 38.349H25.2204C25.4759 38.349 25.721 38.2478 25.9017 38.0678C26.0824 37.8877 26.1839 37.6435 26.1839 37.3888C26.1839 37.2628 26.159 37.1379 26.1105 37.0214C26.0621 36.9049 25.9911 36.7991 25.9017 36.7099C25.8122 36.6208 25.706 36.55 25.5891 36.5018C25.4722 36.4535 25.3469 36.4287 25.2204 36.4287H17.1725C17.046 36.4287 16.9207 36.4535 16.8038 36.5018C16.6869 36.55 16.5807 36.6208 16.4913 36.7099C16.4018 36.7991 16.3308 36.9049 16.2824 37.0214C16.234 37.1379 16.2091 37.2628 16.2091 37.3888C16.2075 37.5153 16.2314 37.6409 16.2793 37.7581C16.3272 37.8752 16.3981 37.9817 16.4879 38.0711C16.5776 38.1606 16.6844 38.2313 16.802 38.279C16.9196 38.3267 17.0456 38.3505 17.1725 38.349Z" fill="#2F2202"/>
<path d="M54.8389 40.8228H44.5013C44.2458 40.8228 44.0007 40.9239 43.82 41.104C43.6394 41.284 43.5378 41.5282 43.5378 41.7829C43.5378 42.0375 43.6394 42.2817 43.82 42.4618C44.0007 42.6419 44.2458 42.743 44.5013 42.743H54.8389C55.0944 42.743 55.3394 42.6419 55.5201 42.4618C55.7008 42.2817 55.8023 42.0375 55.8023 41.7829C55.8023 41.5282 55.7008 41.284 55.5201 41.104C55.3394 40.9239 55.0944 40.8228 54.8389 40.8228Z" fill="#2F2202"/>
<path d="M26.1385 40.8228C25.883 40.8228 25.6379 40.9239 25.4572 41.104C25.2766 41.284 25.175 41.5282 25.175 41.7829C25.175 42.0375 25.2766 42.2817 25.4572 42.4618C25.6379 42.6419 25.883 42.743 26.1385 42.743H40.806C41.0616 42.743 41.3066 42.6419 41.4873 42.4618C41.668 42.2817 41.7695 42.0375 41.7695 41.7829C41.7695 41.5282 41.668 41.284 41.4873 41.104C41.3066 40.9239 41.0616 40.8228 40.806 40.8228H26.1385Z" fill="#2F2202"/>
<path d="M17.1725 42.7543H21.3892C21.6447 42.7543 21.8897 42.6531 22.0704 42.473C22.2511 42.293 22.3526 42.0488 22.3526 41.7941C22.3526 41.5395 22.2511 41.2953 22.0704 41.1152C21.8897 40.9351 21.6447 40.834 21.3892 40.834H17.1725C16.917 40.834 16.6719 40.9351 16.4913 41.1152C16.3106 41.2953 16.2091 41.5395 16.2091 41.7941C16.2075 41.9206 16.2314 42.0462 16.2793 42.1633C16.3272 42.2805 16.3981 42.387 16.4879 42.4764C16.5776 42.5659 16.6844 42.6365 16.802 42.6843C16.9196 42.732 17.0456 42.7558 17.1725 42.7543Z" fill="#2F2202"/>
<path d="M54.8388 45.2393H49.67C49.4145 45.2393 49.1694 45.3404 48.9887 45.5205C48.8081 45.7005 48.7065 45.9447 48.7065 46.1994C48.7065 46.454 48.8081 46.6982 48.9887 46.8783C49.1694 47.0584 49.4145 47.1595 49.67 47.1595H54.8388C55.0943 47.1595 55.3394 47.0584 55.5201 46.8783C55.7008 46.6982 55.8023 46.454 55.8023 46.1994C55.8023 45.9447 55.7008 45.7005 55.5201 45.5205C55.3394 45.3404 55.0943 45.2393 54.8388 45.2393Z" fill="#2F2202"/>
<path d="M46.3942 45.2393H32.4862C32.2306 45.2393 31.9856 45.3404 31.8049 45.5205C31.6242 45.7005 31.5227 45.9447 31.5227 46.1994C31.5227 46.454 31.6242 46.6982 31.8049 46.8783C31.9856 47.0584 32.2306 47.1595 32.4862 47.1595H46.3942C46.6498 47.1595 46.8948 47.0584 47.0755 46.8783C47.2562 46.6982 47.3577 46.454 47.3577 46.1994C47.3577 45.9447 47.2562 45.7005 47.0755 45.5205C46.8948 45.3404 46.6498 45.2393 46.3942 45.2393Z" fill="#2F2202"/>
<path d="M28.3376 45.2393H17.1726C16.9171 45.2393 16.672 45.3404 16.4913 45.5205C16.3106 45.7005 16.2091 45.9447 16.2091 46.1994C16.2091 46.454 16.3106 46.6982 16.4913 46.8783C16.672 47.0584 16.9171 47.1595 17.1726 47.1595H28.3376C28.5931 47.1595 28.8382 47.0584 29.0189 46.8783C29.1995 46.6982 29.3011 46.454 29.3011 46.1994C29.3011 45.9447 29.1995 45.7005 29.0189 45.5205C28.8382 45.3404 28.5931 45.2393 28.3376 45.2393Z" fill="#2F2202"/>
<path d="M30.5025 27.968C30.591 28.0583 30.6968 28.1298 30.8137 28.1783C30.9305 28.2268 31.056 28.2514 31.1826 28.2504C31.3093 28.252 31.435 28.2278 31.5519 28.1792C31.6689 28.1307 31.7746 28.0588 31.8627 27.968C32.0427 27.7881 32.1437 27.5443 32.1437 27.2903C32.1437 27.0362 32.0427 26.7925 31.8627 26.6125L28.8589 23.6192L31.8627 20.6145C32.0427 20.4346 32.1437 20.1909 32.1437 19.9368C32.1437 19.6827 32.0427 19.439 31.8627 19.259C31.6821 19.0797 31.4376 18.979 31.1826 18.979C30.9277 18.979 30.6831 19.0797 30.5025 19.259L26.8186 22.9301C26.6387 23.1101 26.5376 23.3538 26.5376 23.6079C26.5376 23.862 26.6387 24.1057 26.8186 24.2856L30.5025 27.968Z" fill="#2F2202"/>
<path d="M40.126 27.968C40.2144 28.0583 40.3203 28.1298 40.4371 28.1783C40.554 28.2268 40.6795 28.2514 40.8061 28.2504C40.9328 28.252 41.0585 28.2278 41.1754 28.1792C41.2924 28.1307 41.3981 28.0588 41.4862 27.968L45.1701 24.2969C45.35 24.117 45.4511 23.8732 45.4511 23.6192C45.4511 23.3651 45.35 23.1214 45.1701 22.9414L41.4862 19.259C41.3056 19.0797 41.061 18.979 40.8061 18.979C40.5511 18.979 40.3066 19.0797 40.126 19.259C39.946 19.439 39.845 19.6827 39.845 19.9368C39.845 20.1909 39.946 20.4346 40.126 20.6145L43.1298 23.6192L40.126 26.6125C39.946 26.7925 39.845 27.0362 39.845 27.2903C39.845 27.5443 39.946 27.7881 40.126 27.968Z" fill="#2F2202"/>
<path d="M32.8149 33.2091C32.9162 33.2255 33.0196 33.2255 33.1209 33.2091C33.3233 33.2083 33.5204 33.1449 33.6849 33.0275C33.8494 32.9101 33.9732 32.7446 34.0391 32.5539L39.8086 15.1812C39.8494 15.0611 39.8659 14.9341 39.8571 14.8076C39.8484 14.681 39.8146 14.5575 39.7577 14.4441C39.7008 14.3307 39.6219 14.2296 39.5256 14.1467C39.4292 14.0638 39.3174 14.0008 39.1965 13.9612C38.9529 13.8823 38.688 13.902 38.4589 14.0161C38.2298 14.1303 38.055 14.3297 37.9723 14.5712L32.2028 31.944C32.1549 32.0667 32.1328 32.198 32.1379 32.3297C32.1431 32.4613 32.1754 32.5905 32.2328 32.7092C32.2902 32.8278 32.3715 32.9334 32.4717 33.0195C32.5718 33.1055 32.6886 33.17 32.8149 33.2091Z" fill="#2F2202"/>
</g>
<defs>
<clipPath id="clip0_23_56">
<rect width="72" height="68" fill="white"/>
</clipPath>
</defs>
</svg>
