<svg width="70" height="68" viewBox="0 0 70 68" fill="none" xmlns="http://www.w3.org/2000/svg">
<g clip-path="url(#clip0_23_82)">
<path d="M3.07615 26.6911C3.16622 26.6902 3.25575 26.677 3.34228 26.6519C11.3743 24.3695 19.1694 21.3229 26.6208 17.554C34.3073 13.6392 40.4283 9.4425 44.3341 5.41809L46.1892 7.53208C46.2865 7.64329 46.4071 7.73178 46.5423 7.79131C46.6776 7.85083 46.8242 7.87994 46.9719 7.87658C47.0809 7.87301 47.1889 7.85457 47.2929 7.82177C47.4778 7.75739 47.6395 7.63982 47.7579 7.48382C47.8763 7.32781 47.9459 7.14032 47.9582 6.94486L48.3104 1.41717C48.3209 1.28692 48.3049 1.15588 48.2631 1.03205C48.2214 0.908212 48.1549 0.794163 48.0678 0.696846C47.9823 0.589985 47.8755 0.502083 47.7542 0.43873C47.6329 0.375378 47.4998 0.33796 47.3633 0.328855L41.8294 -0.0313059C41.6336 -0.0463445 41.4378 -0.00211601 41.2675 0.0956289C41.0972 0.193374 40.9602 0.340113 40.8744 0.516765C40.7858 0.692667 40.7519 0.891069 40.777 1.08642C40.8021 1.28178 40.8851 1.46514 41.0153 1.61291L43.0269 3.93047C35.6379 11.627 19.1222 20.169 2.81002 24.7415C2.58076 24.8078 2.38298 24.9544 2.25283 25.1545C2.12267 25.3545 2.06881 25.5948 2.1011 25.8313C2.13339 26.0678 2.24966 26.2848 2.42868 26.4427C2.6077 26.6005 2.83751 26.6887 3.07615 26.6911ZM46.244 2.27842L46.1031 4.43156L44.0836 2.13749L46.244 2.27842ZM58.846 38.2476C59.107 38.2496 59.3566 38.3542 59.5411 38.5388C59.7257 38.7233 59.8302 38.9731 59.8323 39.2341V39.6882C60.4602 39.8362 61.0384 40.1461 61.5095 40.587C61.9805 41.028 62.3279 41.5846 62.5171 42.2015C62.5641 42.328 62.585 42.4627 62.5784 42.5975C62.5717 42.7323 62.5377 42.8643 62.4784 42.9855C62.4192 43.1068 62.3358 43.2147 62.2335 43.3026C62.1312 43.3906 62.0121 43.4568 61.8833 43.4973C61.7546 43.5377 61.619 43.5515 61.4848 43.5378C61.3506 43.5242 61.2205 43.4833 61.1026 43.4177C60.9847 43.3522 60.8813 43.2633 60.7989 43.1565C60.7164 43.0497 60.6565 42.9272 60.6228 42.7966C60.476 42.3679 60.1781 42.0074 59.7848 41.7826C59.3914 41.5578 58.9297 41.484 58.486 41.5751C58.1896 41.5972 57.914 41.7355 57.719 41.9598C57.524 42.1842 57.4255 42.4764 57.4449 42.7731C57.4449 43.4308 57.6954 43.6265 59.3313 43.8379C60.3097 43.9632 61.4212 44.1041 62.0552 44.9654C62.2482 45.2574 62.3785 45.5864 62.4377 45.9314C62.497 46.2764 62.4841 46.63 62.3996 46.9697C62.2802 47.6153 61.9716 48.2109 61.5131 48.6807C61.0546 49.1505 60.4668 49.4734 59.8244 49.6083V50.0389C59.8367 50.1764 59.8202 50.3149 59.776 50.4456C59.7318 50.5764 59.6608 50.6965 59.5677 50.7983C59.4746 50.9001 59.3612 50.9814 59.235 51.0371C59.1087 51.0927 58.9723 51.1214 58.8343 51.1214C58.6963 51.1214 58.5598 51.0927 58.4336 51.0371C58.3073 50.9814 58.194 50.9001 58.1009 50.7983C58.0077 50.6965 57.9368 50.5764 57.8926 50.4456C57.8484 50.3149 57.8319 50.1764 57.8441 50.0389V49.5692C57.2056 49.4048 56.6212 49.0762 56.1489 48.6161C55.6766 48.156 55.3327 47.5803 55.1515 46.9462C55.0867 46.694 55.1233 46.4265 55.2536 46.201C55.3838 45.9755 55.5973 45.8102 55.8481 45.7405C55.9735 45.7037 56.105 45.6925 56.2349 45.7074C56.3647 45.7223 56.4902 45.763 56.604 45.8273C56.7178 45.8915 56.8176 45.9779 56.8975 46.0813C56.9774 46.1847 57.0358 46.3031 57.0692 46.4295C57.1916 46.8374 57.4506 47.1907 57.8026 47.4302C58.1547 47.6697 58.5784 47.7808 59.0026 47.7449C59.3376 47.752 59.665 47.644 59.9299 47.4388C60.1949 47.2336 60.3815 46.9436 60.4585 46.6174C60.5049 46.4669 60.5049 46.3059 60.4585 46.1554C60.0297 45.9507 59.5635 45.8362 59.0887 45.8188C57.7737 45.6544 55.5664 45.3725 55.4724 42.8592C55.4366 42.145 55.6518 41.4408 56.0807 40.8688C56.5096 40.2967 57.1252 39.8929 57.8206 39.7274V39.2419C57.8195 39.1084 57.8454 38.9759 57.897 38.8527C57.9485 38.7295 58.0245 38.618 58.1204 38.525C58.2162 38.432 58.33 38.3595 58.4547 38.3118C58.5795 38.2641 58.7126 38.2423 58.846 38.2476ZM70 57.0386V55.4727C70 54.4697 69.6017 53.5078 68.8927 52.7986C68.1837 52.0894 67.2221 51.691 66.2194 51.691H64.1686C65.4046 50.7588 66.3739 49.5179 66.9792 48.0928C67.5846 46.6678 67.8047 45.1085 67.6176 43.5715C67.4305 42.0344 66.8427 40.5736 65.9131 39.3355C64.9835 38.0974 63.7449 37.1255 62.3214 36.5172V13.1694C62.3224 13.0392 62.2977 12.91 62.2486 12.7895C62.1995 12.6689 62.127 12.5592 62.0353 12.4667C61.9436 12.3743 61.8345 12.3009 61.7144 12.2509C61.5942 12.2008 61.4653 12.175 61.3351 12.175H51.684C51.5508 12.1708 51.4182 12.1934 51.294 12.2415C51.1697 12.2896 51.0564 12.3622 50.9608 12.455C50.8651 12.5477 50.7891 12.6588 50.7372 12.7815C50.6853 12.9042 50.6585 13.0361 50.6586 13.1694V40.9331H46.197V18.8615C46.197 18.7313 46.1713 18.6024 46.1212 18.4822C46.0712 18.3619 45.9978 18.2528 45.9054 18.1611C45.813 18.0694 45.7033 17.9969 45.5828 17.9478C45.4622 17.8987 45.3331 17.8739 45.2029 17.875H35.591C35.4608 17.8739 35.3317 17.8987 35.2111 17.9478C35.0906 17.9969 34.9809 18.0694 34.8885 18.1611C34.7961 18.2528 34.7228 18.3619 34.6727 18.4822C34.6227 18.6024 34.5969 18.7313 34.5969 18.8615V57.0073H30.1275V25.6106C30.1306 25.4791 30.1074 25.3483 30.0592 25.2259C30.0111 25.1034 29.9389 24.9919 29.847 24.8978C29.7551 24.8037 29.6454 24.7289 29.5242 24.6779C29.4029 24.6268 29.2727 24.6005 29.1412 24.6006H19.4901C19.2265 24.6006 18.9736 24.7054 18.7872 24.8918C18.6008 25.0783 18.496 25.3312 18.496 25.5949V56.9916H14.0344V36.0709C14.0344 35.8072 13.9297 35.5543 13.7433 35.3678C13.5569 35.1813 13.304 35.0766 13.0404 35.0766H3.39707C3.13343 35.0766 2.88058 35.1813 2.69415 35.3678C2.50773 35.5543 2.403 35.8072 2.403 36.0709V57.0073H2.28559C1.68076 57.0073 1.1006 57.2471 0.672194 57.6741C0.243788 58.1012 0.00207131 58.6807 0 59.2857V60.1626C0 60.7689 0.240802 61.3504 0.669433 61.7792C1.09806 62.208 1.67941 62.4488 2.28559 62.4488H42.8313C43.1591 63.0425 43.6397 63.5378 44.2232 63.8833C44.8067 64.2289 45.472 64.4121 46.1501 64.4141H52.2241C52.2781 65.3807 52.6999 66.2899 53.4029 66.9553C54.1059 67.6207 55.0369 67.9917 56.0047 67.9922H66.2585C67.2619 67.9922 68.2243 67.594 68.9346 66.885C69.6448 66.176 70.0449 65.2142 70.047 64.2105V62.6446C70.0454 62.1124 69.9308 61.5866 69.7109 61.1021C69.4909 60.6175 69.1706 60.1852 68.7711 59.8337C69.158 59.4798 69.467 59.0492 69.6785 58.5693C69.8901 58.0895 69.9996 57.5709 70 57.0464V57.0386ZM52.2241 55.2691H46.1344C45.6562 55.267 45.1983 55.0756 44.8609 54.7366C44.5235 54.3976 44.3341 53.9388 44.3341 53.4605V51.8945C44.3341 51.4169 44.5238 50.9589 44.8614 50.6212C45.199 50.2835 45.6569 50.0937 46.1344 50.0937H51.8875C52.5273 50.9025 53.3002 51.5962 54.1731 52.1451C53.61 52.4577 53.1356 52.9084 52.7947 53.455C52.4537 54.0015 52.2574 54.6258 52.2241 55.2691ZM44.3967 46.3042V44.7383C44.3967 44.2607 44.5864 43.8027 44.924 43.4649C45.2616 43.1272 45.7196 42.9375 46.197 42.9375H50.2359C49.8817 44.6642 50.0479 46.4572 50.7134 48.0894H46.1344C45.6596 48.0894 45.2041 47.9018 44.8669 47.5675C44.5297 47.2331 44.3382 46.7791 44.3341 46.3042H44.3967ZM65.7576 44.6365C65.7623 45.6573 65.5392 46.6663 65.1045 47.5899C64.6698 48.5135 64.0345 49.3284 63.2449 49.9751C62.4552 50.6218 61.5313 51.0841 60.5403 51.3282C59.5494 51.5723 58.5165 51.592 57.517 51.386C56.5174 51.1799 55.5765 50.7533 54.7627 50.1372C53.949 49.5211 53.283 48.7311 52.8134 47.8248C52.3437 46.9185 52.0822 45.9188 52.048 44.8985C52.0137 43.8783 52.2076 42.8632 52.6155 41.9275H52.7407V41.6456C53.4154 40.2474 54.5449 39.1199 55.9441 38.4479C57.3433 37.7758 58.9292 37.5991 60.442 37.9467C61.9547 38.2943 63.3045 39.1456 64.2703 40.361C65.2361 41.5764 65.7605 43.0839 65.7576 44.6365ZM60.341 14.1637V35.93C59.845 35.8417 59.3421 35.7972 58.8382 35.7969C56.5335 35.7954 54.3208 36.701 52.6781 38.318V14.1637H60.341ZM36.5694 19.8559H44.2402V41.4499C43.666 41.7815 43.1893 42.2586 42.8581 42.8331C42.527 43.4077 42.353 44.0594 42.3538 44.7226V46.2886C42.356 46.818 42.4693 47.341 42.6864 47.8239C42.9035 48.3067 43.2195 48.7386 43.614 49.0915C43.2273 49.4473 42.9185 49.8793 42.707 50.3604C42.4955 50.8415 42.3859 51.3612 42.3851 51.8867V53.4526C42.3834 53.9797 42.4918 54.5013 42.7034 54.984C42.915 55.4667 43.2252 55.8999 43.614 56.2556C43.3697 56.4861 43.1589 56.7496 42.9878 57.0386H36.5694V19.8559ZM20.4842 26.605H28.1472V57.0073H20.4842V26.605ZM4.38332 37.0653H12.0463V57.0073H4.38332V37.0653ZM1.98815 60.1626V59.2857C1.99013 59.2074 2.0221 59.1329 2.07746 59.0775C2.13282 59.0221 2.20732 58.9901 2.28559 58.9881H42.3538V60.4601H2.28559C2.2067 60.4601 2.13105 60.4288 2.07526 60.373C2.01948 60.3172 1.98815 60.2415 1.98815 60.1626ZM52.2241 62.4332H46.1344C45.897 62.4321 45.662 62.3843 45.4431 62.2925C45.2241 62.2007 45.0253 62.0666 44.8582 61.8979C44.691 61.7292 44.5587 61.5293 44.4688 61.3094C44.3788 61.0896 44.3331 60.8542 44.3341 60.6167V59.0508C44.3341 58.5732 44.5238 58.1151 44.8614 57.7774C45.199 57.4397 45.6569 57.25 46.1344 57.25H52.2241C52.2686 58.2335 52.6955 59.1607 53.4138 59.8337C52.6918 60.5106 52.2645 61.4441 52.2241 62.4332ZM68.0588 62.6289V64.1948C68.0588 64.6724 67.8691 65.1305 67.5315 65.4682C67.1939 65.8059 66.736 65.9956 66.2585 65.9956H55.9656C55.4881 65.9956 55.0302 65.8059 54.6926 65.4682C54.3549 65.1305 54.1653 64.6724 54.1653 64.1948V62.6289C54.1673 62.1519 54.3577 61.6951 54.6948 61.3578C55.032 61.0206 55.4887 60.8302 55.9656 60.8281H66.2194C66.6962 60.8302 67.1529 61.0206 67.4901 61.3578C67.8273 61.6951 68.0176 62.1519 68.0197 62.6289H68.0588ZM56.0047 58.8472C55.5272 58.8472 55.0693 58.6575 54.7317 58.3198C54.3941 57.9821 54.2044 57.524 54.2044 57.0464V55.4805C54.2065 55.0035 54.3968 54.5467 54.734 54.2094C55.0711 53.8721 55.5279 53.6817 56.0047 53.6797H66.2585C66.7354 53.6817 67.1921 53.8721 67.5292 54.2094C67.8664 54.5467 68.0568 55.0035 68.0588 55.4805V57.0464C68.0588 57.524 67.8691 57.9821 67.5315 58.3198C67.1939 58.6575 66.736 58.8472 66.2585 58.8472H56.0047Z" fill="#2F2202"/>
</g>
<defs>
<clipPath id="clip0_23_82">
<rect width="70" height="68" fill="white"/>
</clipPath>
</defs>
</svg>
