<svg width="202" height="79" viewBox="0 0 202 79" fill="none" xmlns="http://www.w3.org/2000/svg">
<path d="M0 26.4163C0.0671842 20.6552 2.38156 15.148 6.44996 11.0684C10.5184 6.98884 16.0191 4.65933 21.78 4.57629C27.24 4.65629 32.07 6.80629 36.47 11.0463L31.6 17.6763C29.0267 14.921 25.4675 13.296 21.7 13.1563C18.2423 13.2512 14.9581 14.6914 12.546 17.1706C10.134 19.6498 8.78438 22.9723 8.78438 26.4313C8.78438 29.8903 10.134 33.2127 12.546 35.6919C14.9581 38.1711 18.2423 39.6114 21.7 39.7063C25.55 39.7063 28.88 37.6463 31.7 34.9163L36.54 41.7363C32.85 45.3963 28.35 48.1563 22 48.1563C16.21 48.1567 10.6533 45.8746 6.53486 41.8048C2.41645 37.7351 0.0684272 32.2059 0 26.4163Z" fill="white"/>
<path d="M132.56 26.4463C132.56 39.4463 124.29 47.3463 110.74 47.3463H98.55V5.45629H110.74C124.29 5.40629 132.56 13.3663 132.56 26.4463ZM124.06 26.4463C124.06 18.5963 119.01 13.8063 110.72 13.8063H106.95V38.9763H110.78C119.04 38.9463 124.06 34.2163 124.06 26.4163V26.4463Z" fill="white"/>
<path d="M146.44 13.7763V21.9663H160.9V30.3663H146.44V39.0263H163.29V47.3963H138.01V5.43628H163.29V13.7763H146.44Z" fill="white"/>
<path d="M191.26 47.3463L177.92 27.5363V47.3463H169.5V5.43628H183.18C191 5.43628 197.43 11.4363 197.43 19.0063C197.43 24.3863 194.18 29.0963 189.68 30.6763L201.59 47.3463H191.26ZM177.9 24.3463H183.3C184.7 24.3463 186.043 23.79 187.034 22.7998C188.024 21.8096 188.58 20.4666 188.58 19.0663C188.58 17.6659 188.024 16.3229 187.034 15.3327C186.043 14.3426 184.7 13.7863 183.3 13.7863H177.9V24.3463Z" fill="white"/>
<path d="M78.31 44.0164C76.6833 45.0469 74.9238 45.8509 73.08 46.4064C71.1153 46.9853 69.0782 47.2816 67.03 47.2864C63.038 47.2888 59.1271 46.1593 55.7511 44.0288C52.3751 41.8984 49.6724 38.8543 47.9566 35.2499C46.2407 31.6455 45.5821 27.6284 46.057 23.6647C46.532 19.7011 48.1211 15.9534 50.64 12.8564L46.84 8.77637C46.71 8.92637 46.59 9.05637 46.47 9.20637C42.3237 14.222 40.1566 20.5818 40.3778 27.0856C40.599 33.5894 43.1931 39.7873 47.6706 44.5096C52.1481 49.2319 58.1992 52.152 64.682 52.7189C71.1648 53.2857 77.6309 51.46 82.86 47.5864L78.31 44.0164Z" fill="white"/>
<path d="M82.86 47.5863L76.85 49.4163L73.07 46.4063L49.9 27.8863L63.44 17.9363L63.64 23.5463L57.83 27.9563L78.3 44.0163L82.86 47.5863Z" fill="white"/>
<path d="M55.66 8.7763C57.2835 7.73996 59.0439 6.93552 60.89 6.3863C62.8383 5.81044 64.8584 5.51415 66.89 5.5063C70.8811 5.50351 74.7912 6.63216 78.1668 8.76137C81.5425 10.8906 84.2454 13.9331 85.9621 17.5361C87.6788 21.1391 88.339 25.1549 87.866 29.1179C87.3931 33.0808 85.8064 36.8285 83.29 39.9263L87.08 44.0163L87.46 43.5863C91.5913 38.567 93.7455 32.2108 93.5172 25.714C93.2889 19.2172 90.6937 13.0279 86.2202 8.31103C81.7467 3.5942 75.7034 0.675159 69.2278 0.103345C62.7522 -0.46847 56.2908 1.34638 51.06 5.2063L55.66 8.7763Z" fill="white"/>
<path d="M51.1 5.19633L57.11 3.36633L60.88 6.37633L84.06 24.8863L70.51 34.8463L70.32 29.2263L76.13 24.8263L55.66 8.76633L51.1 5.19633Z" fill="white"/>
<path d="M98.55 66.3963C98.5736 63.1609 99.87 60.0648 102.159 57.778C104.447 55.4911 107.545 54.1972 110.78 54.1763C113.863 54.2694 116.789 55.5566 118.94 57.7663L117.38 59.8763C116.518 58.9564 115.482 58.2173 114.332 57.7022C113.181 57.1871 111.94 56.9063 110.68 56.8763C108.16 56.8763 105.744 57.8772 103.962 59.6588C102.181 61.4404 101.18 63.8567 101.18 66.3763C101.18 68.8958 102.181 71.3122 103.962 73.0938C105.744 74.8754 108.16 75.8763 110.68 75.8763C111.93 75.8484 113.163 75.5744 114.308 75.0699C115.452 74.5655 116.486 73.8404 117.35 72.9363L118.9 75.0863C117.847 76.1843 116.583 77.0592 115.185 77.6588C113.786 78.2584 112.282 78.5704 110.76 78.5763C107.533 78.558 104.442 77.2698 102.157 74.9904C99.872 72.711 98.5762 69.6237 98.55 66.3963Z" fill="white"/>
<path d="M139.52 54.5164V78.2564H136.86V67.6964H124.86V78.2564H122.18V54.5164H124.86V65.0464H136.86V54.5164H139.52Z" fill="white"/>
<path d="M160 74.3564H147L145.26 78.2564H142.36L153.36 54.1464H153.66L164.66 78.2564H161.78L160 74.3564ZM159 72.0264L153.53 59.7764L148.09 71.9864L159 72.0264Z" fill="white"/>
<path d="M167.52 54.5164H175.04C179.64 54.5164 183.39 57.9564 183.39 62.1764C183.39 66.1764 179.64 69.4864 175.04 69.4864H170.2V78.2564H167.52V54.5164ZM180.71 62.1464C180.71 59.4064 178.16 57.1464 175.04 57.1464H170.2V66.8164H175.04C178.16 66.8664 180.71 64.7764 180.71 62.1464Z" fill="white"/>
<path d="M185.14 74.0164L187.2 72.4964C187.814 73.5391 188.692 74.4016 189.745 74.9967C190.798 75.5919 191.99 75.8988 193.2 75.8864C196.31 75.8864 198.84 74.2064 198.84 71.8864C198.84 69.2164 195.44 67.8863 192.41 66.7863C189.38 65.6863 186.24 64.2264 186.24 60.5564C186.24 56.8864 189.52 54.1764 193.69 54.1764C195.126 54.0956 196.552 54.4631 197.77 55.2281C198.988 55.993 199.939 57.1177 200.49 58.4464L198.49 59.8064C198.064 58.8945 197.384 58.1258 196.53 57.5933C195.676 57.0608 194.686 56.7874 193.68 56.8064C191.13 56.8064 188.95 58.4864 188.95 60.6064C188.95 62.9064 191.56 63.7464 194.62 64.9164C198.19 66.3664 201.56 68.0164 201.56 71.8264C201.56 75.9264 197.77 78.5863 193.21 78.5863C189.3 78.5763 186.27 76.5464 185.14 74.0164Z" fill="white"/>
<path d="M95.36 66.3864H0" stroke="white" stroke-width="2" stroke-miterlimit="10"/>
</svg>
