<svg width="55" height="52" viewBox="0 0 55 52" fill="none" xmlns="http://www.w3.org/2000/svg">
<path d="M9.45411 0L6.68839 2.7493L10.8036 6.84391L13.5654 4.09461L9.45411 0ZM45.5479 0L41.4327 4.09461L44.1964 6.84391L48.3096 2.75125L45.5479 0ZM27.5 1.22017C26.8518 1.22799 26.1957 1.26515 25.5357 1.34532C25.5161 1.34532 25.4964 1.34141 25.4768 1.34532C17.5096 2.25458 11.1689 8.66243 10.067 16.5583C9.18696 22.9134 11.8191 28.676 16.2054 32.3873C17.9996 33.9116 19.2131 36.0034 19.6429 38.3122V50.0446H24.1214C24.805 51.212 26.0523 52 27.5 52C28.9477 52 30.195 51.212 30.8786 50.0446H35.3571V42.223H35.5418V39.9C35.5418 37.0334 37.0386 34.1433 39.4704 31.8965C42.7232 28.6545 45.1786 24.0495 45.1786 18.7601C45.1786 9.10044 37.1918 1.13022 27.5 1.22017ZM27.5 5.13097C35.092 5.02538 41.25 11.2123 41.25 18.7601C41.25 22.8547 39.3446 26.4605 36.7066 29.0846L36.7695 29.1472C34.1479 31.5537 32.4527 34.796 31.9766 38.3141H23.3848C22.9527 34.9626 21.5089 31.7186 18.7805 29.3916C15.3096 26.4585 13.2413 22.0393 13.9327 17.0491C14.7911 10.8896 19.8118 5.9366 25.9639 5.25808C26.4719 5.18758 26.9834 5.1458 27.4961 5.13293L27.5 5.13097ZM0 18.7601V22.6709H5.89286V18.7601H0ZM49.1071 18.7601V22.6709H55V18.7601H49.1071ZM10.8036 34.5871L6.69036 38.6798L9.45411 41.4311L13.5634 37.3364L10.8036 34.5871ZM44.1964 34.5871L41.4346 37.3364L45.5459 41.4311L48.3096 38.6798L44.1964 34.5871ZM23.5714 42.2249H31.4286V46.1357H23.5714V42.2249Z" fill="#DC9401"/>
</svg>
